<?xml version="1.0" ?><svg viewBox="0 0 64 64" xmlns="http://www.w3.org/2000/svg"><g id="a"/><g id="b"/><g id="c"/><g id="d"/><g id="e"/><g id="f"/><g id="g"/><g id="h"/><g id="i"/><g id="j"/><g id="k"/><g id="l"/><g id="m"/><g id="n"/><g id="o"/><g id="p"/><g id="q"/><g id="r"/><g id="s"/><g id="t"/><g id="u"/><g id="v"/><g id="w"/><g id="x"/><g id="y"/><g id="a`"/><g id="aa"/><g id="ab"/><g id="ac"/><g id="ad"/><g id="ae"/><g id="af"/><g id="ag"/><g id="ah"/><g id="ai"/><g id="aj"/><g id="ak"/><g id="al"/><g id="am"/><g id="an"/><g id="ao"/><g id="ap"/><g id="aq"/><g id="ar"/><g id="as"/><g id="at"/><g id="au"/><g id="av"/><g id="aw"/><g id="ax"><polygon fill="#8fd7f8" fill-rule="evenodd" points="50.65 49.78 50.65 41.19 31.32 37.7 13.35 41.19 13.35 49.78 30.44 53.37 50.65 49.78"/><path d="M11.24,49.78H52.75c.95,0,1.73,.78,1.73,1.73v3.57c0,.95-.78,1.73-1.73,1.73H11.24c-.95,0-1.73-.77-1.73-1.73v-3.57c0-.95,.77-1.73,1.73-1.73Z" fill="#d9f0f3"/><polygon fill="#f0f3f5" fill-rule="evenodd" points="44.87 54.62 44.87 47.14 31.24 45.39 19.13 47.14 19.13 54.62 32.81 56.21 44.87 54.62"/><path d="M16.23,13c-4.22,4.2-6.58,9.86-6.6,15.77l6.61,15.76c4.17,4.2,9.84,6.58,15.76,6.61l15.77-6.6c4.22-4.19,6.58-9.85,6.6-15.77l-6.61-15.76c-4.17-4.2-9.84-6.58-15.76-6.61l-15.77,6.6Z" fill="#8996a8" fill-rule="evenodd"/><path d="M32,28.77H9.63c.03,5.92,2.41,11.59,6.61,15.76l15.76-15.76Z" fill="#9fa9b6" fill-rule="evenodd"/><path d="M32,28.77v22.37c5.93,0,11.62-2.36,15.81-6.56l-15.81-15.81Z" fill="#9fa9b6" fill-rule="evenodd"/><path d="M32,28.77h22.37c0-5.93-2.36-11.62-6.55-15.82l-15.82,15.82Z" fill="#9fa9b6" fill-rule="evenodd"/><path d="M32,5.93l-5.46,1.15c-3.91,1-7.48,3.04-10.33,5.91l15.78,15.78V5.93Z" fill="#9fa9b6" fill-rule="evenodd"/><path d="M44.5,16.34c-2.26-2.26-5.09-3.86-8.19-4.64h-4.31l-12.47,4.67c-3.32,3.3-5.19,7.79-5.21,12.47l5.22,12.46c3.3,3.32,7.77,5.2,12.45,5.22l12.49-5.18c3.32-3.32,5.18-7.81,5.18-12.5l-5.18-12.5Z" fill="#e8a3c1" fill-rule="evenodd"/><path d="M32,28.84H14.32c.02,4.68,1.9,9.16,5.22,12.46l12.45-12.46Z" fill="#f0f3f5" fill-rule="evenodd"/><path d="M32,28.84v17.68c4.69,0,9.18-1.87,12.49-5.18l-12.49-12.5Z" fill="#f0f3f5" fill-rule="evenodd"/><path d="M32,28.84h17.68c0-4.69-1.86-9.18-5.18-12.5l-12.5,12.5Z" fill="#f0f3f5" fill-rule="evenodd"/><path d="M32,11.7h-4.31c-3.09,.79-5.91,2.41-8.16,4.67l12.47,12.47V11.7Z" fill="#f0f3f5" fill-rule="evenodd"/><path d="M36.77,9.34c0,2.96-2.37,5.89-3.77,7.36-.53,.56-1.46,.56-1.99,0-1.4-1.47-3.77-4.4-3.77-7.36,0-2.63,2.13-4.34,4.77-4.34s4.77,1.71,4.77,4.34Z" fill="#f2d865" fill-rule="evenodd"/><path d="M17.71,54.62h28.58c1.21,0,2.19,.98,2.19,2.19s-.98,2.19-2.19,2.19H17.71c-1.21,0-2.19-.98-2.19-2.19s.98-2.19,2.19-2.19Z" fill="#e4ecf0" fill-rule="evenodd"/><circle cx="32" cy="9.41" fill="#e6a361" r="1"/></g></svg>